<svg id="visual" viewBox="0 0 960 300" width="960" height="300" xmlns="http://www.w3.org/2000/svg" xmlns:xlink="http://www.w3.org/1999/xlink" version="1.1"><rect x="0" y="0" width="960" height="300" fill="#0c192c"></rect><path d="M0 101L22.8 104.2C45.7 107.3 91.3 113.7 137 115.2C182.7 116.7 228.3 113.3 274 110C319.7 106.7 365.3 103.3 411.2 102.5C457 101.7 503 103.3 548.8 101.5C594.7 99.7 640.3 94.3 686 96.3C731.7 98.3 777.3 107.7 823 108.2C868.7 108.7 914.3 100.3 937.2 96.2L960 92L960 0L937.2 0C914.3 0 868.7 0 823 0C777.3 0 731.7 0 686 0C640.3 0 594.7 0 548.8 0C503 0 457 0 411.2 0C365.3 0 319.7 0 274 0C228.3 0 182.7 0 137 0C91.3 0 45.7 0 22.8 0L0 0Z" fill="#228cdb"></path><path d="M0 88L22.8 85.2C45.7 82.3 91.3 76.7 137 78C182.7 79.3 228.3 87.7 274 92.2C319.7 96.7 365.3 97.3 411.2 97.7C457 98 503 98 548.8 98.3C594.7 98.7 640.3 99.3 686 95.2C731.7 91 777.3 82 823 77.7C868.7 73.3 914.3 73.7 937.2 73.8L960 74L960 0L937.2 0C914.3 0 868.7 0 823 0C777.3 0 731.7 0 686 0C640.3 0 594.7 0 548.8 0C503 0 457 0 411.2 0C365.3 0 319.7 0 274 0C228.3 0 182.7 0 137 0C91.3 0 45.7 0 22.8 0L0 0Z" fill="#0087c7"></path><path d="M0 45L22.8 45C45.7 45 91.3 45 137 49.2C182.7 53.3 228.3 61.7 274 64.5C319.7 67.3 365.3 64.7 411.2 63.7C457 62.7 503 63.3 548.8 63C594.7 62.7 640.3 61.3 686 63.8C731.7 66.3 777.3 72.7 823 73.8C868.7 75 914.3 71 937.2 69L960 67L960 0L937.2 0C914.3 0 868.7 0 823 0C777.3 0 731.7 0 686 0C640.3 0 594.7 0 548.8 0C503 0 457 0 411.2 0C365.3 0 319.7 0 274 0C228.3 0 182.7 0 137 0C91.3 0 45.7 0 22.8 0L0 0Z" fill="#0080b2"></path><path d="M0 39L22.8 39.5C45.7 40 91.3 41 137 43C182.7 45 228.3 48 274 48.7C319.7 49.3 365.3 47.7 411.2 48.8C457 50 503 54 548.8 53.7C594.7 53.3 640.3 48.7 686 46.5C731.7 44.3 777.3 44.7 823 43.5C868.7 42.3 914.3 39.7 937.2 38.3L960 37L960 0L937.2 0C914.3 0 868.7 0 823 0C777.3 0 731.7 0 686 0C640.3 0 594.7 0 548.8 0C503 0 457 0 411.2 0C365.3 0 319.7 0 274 0C228.3 0 182.7 0 137 0C91.3 0 45.7 0 22.8 0L0 0Z" fill="#00799d"></path><path d="M0 35L22.8 33.8C45.7 32.7 91.3 30.3 137 27.5C182.7 24.7 228.3 21.3 274 19.5C319.7 17.7 365.3 17.3 411.2 19.5C457 21.7 503 26.3 548.8 27C594.7 27.7 640.3 24.3 686 21.3C731.7 18.3 777.3 15.7 823 15.7C868.7 15.7 914.3 18.3 937.2 19.7L960 21L960 0L937.2 0C914.3 0 868.7 0 823 0C777.3 0 731.7 0 686 0C640.3 0 594.7 0 548.8 0C503 0 457 0 411.2 0C365.3 0 319.7 0 274 0C228.3 0 182.7 0 137 0C91.3 0 45.7 0 22.8 0L0 0Z" fill="#0b7189"></path></svg>